# xmcd CD database file
#
# Track frame offsets:
#	150
#	20502
#	42273
#	67206
#	85526
#	104115
#	131741
#	152693
#	172609
#	189484
#	212513
#	235635
#
# Disc length: 3453 seconds
#
# Revision: 2
# Processed by: cddbd v1.5.1PL0 Copyright (c) Steve Scherf et al.
# Submitted via: CDex 1.51
#
DISCID=980d7b0c
DTITLE=The Gospellers - Dressed up to the Nines
DYEAR=2004
DGENRE=JPop
TTITLE0=Right on, Babe
TTITLE1=You are my girl
TTITLE2=Reflections
TTITLE3=Real tight
TTITLE4=Sweet
TTITLE5=アンジュナ
TTITLE6=エンドロール
TTITLE7=新大阪
TTITLE8=シアトリカル
TTITLE9=Yes, No, Yes…
TTITLE10=コーリング
TTITLE11=街角 -on the corner-
EXTD=YEAR: 2004
EXTT0=
EXTT1=
EXTT2=
EXTT3=
EXTT4=
EXTT5=
EXTT6=
EXTT7=
EXTT8=
EXTT9=
EXTT10=
EXTT11=
PLAYORDER=
